<?xml version="1.0" standalone="no"?>
<!DOCTYPE svg PUBLIC "-//W3C//DTD SVG 20010904//EN"
 "http://www.w3.org/TR/2001/REC-SVG-20010904/DTD/svg10.dtd">
<svg version="1.0" xmlns="http://www.w3.org/2000/svg"
 width="300.000000pt" height="345.000000pt" viewBox="0 0 300.000000 345.000000"
 preserveAspectRatio="xMidYMid meet">
<metadata>
Created by potrace 1.10, written by Peter Selinger 2001-2011
</metadata>
<g transform="translate(0.000000,345.000000) scale(0.100000,-0.100000)"
fill="#000000" stroke="none">
<path d="M1390 3380 c-22 -22 -22 -24 26 -87 70 -92 66 -129 -26 -243 -95
-116 -112 -192 -65 -286 45 -90 101 -129 123 -86 10 18 0 56 -17 67 -22 13
-51 85 -51 124 0 31 9 51 48 100 87 114 112 160 112 213 0 58 -18 105 -61 159
-44 56 -64 64 -89 39z"/>
<path d="M1586 3374 c-23 -22 -21 -29 24 -88 42 -56 56 -99 46 -140 -3 -14
-32 -58 -65 -98 -96 -120 -112 -166 -87 -250 19 -63 79 -148 104 -148 21 0 42
19 42 38 0 7 -11 28 -25 46 -38 50 -57 105 -50 142 3 19 34 69 74 119 96 122
111 181 66 271 -26 53 -86 124 -103 124 -6 0 -18 -7 -26 -16z"/>
<path d="M1808 3379 c-27 -16 -21 -47 17 -92 73 -85 68 -132 -25 -247 -89
-110 -106 -169 -74 -262 18 -55 78 -128 104 -128 11 0 24 9 30 21 9 16 8 26
-7 46 -47 66 -63 100 -63 140 0 35 8 52 50 105 92 116 104 138 108 204 5 70
-15 118 -75 184 -39 44 -40 44 -65 29z"/>
<path d="M744 2585 c-14 -22 -15 -43 -9 -153 17 -317 77 -548 182 -705 16 -23
32 -46 35 -52 4 -7 -52 -9 -162 -7 l-169 4 -26 -26 c-36 -36 -29 -53 77 -168
99 -108 157 -149 255 -183 146 -51 222 -56 693 -53 418 4 438 5 520 27 163 44
222 79 342 201 89 90 108 115 108 139 0 56 -26 63 -220 59 -93 -1 -170 -1
-170 1 0 2 11 16 24 32 14 16 43 65 65 109 l40 81 15 -29 c22 -42 87 -97 139
-117 68 -26 167 -17 236 21 69 37 153 129 190 207 103 219 43 472 -131 547
-98 42 -237 16 -319 -61 -17 -16 -32 -29 -34 -29 -1 0 0 29 2 65 5 50 2 70
-11 90 l-16 25 -820 0 -820 0 -16 -25z m1634 -27 c7 -7 12 -34 12 -62 0 -79
40 -108 93 -66 84 67 203 88 282 51 194 -90 208 -424 25 -611 -66 -67 -129
-95 -215 -95 -83 1 -112 14 -182 84 -28 28 -58 51 -67 51 -18 0 -53 -45 -92
-118 -16 -30 -37 -68 -46 -85 -15 -27 -16 -34 -4 -51 19 -30 45 -34 209 -35
135 -1 147 -2 147 -19 0 -24 -184 -204 -235 -229 -59 -30 -159 -60 -254 -78
-120 -22 -818 -22 -947 0 -107 19 -204 49 -262 82 -69 40 -229 214 -216 234 3
5 69 9 147 9 145 0 179 7 201 42 8 13 -3 43 -52 140 -69 139 -86 185 -112 313
-26 124 -46 405 -31 434 l12 21 787 0 c600 0 791 -3 800 -12z"/>
<path d="M873 2523 c-55 -11 -62 -58 -39 -259 30 -250 110 -457 226 -584 l41
-45 465 -2 c382 -2 470 0 492 11 31 16 127 145 164 221 62 125 102 293 114
484 8 137 -1 166 -54 175 -41 6 -1374 6 -1409 -1z m1437 -75 c0 -303 -86 -580
-231 -746 l-29 -33 -473 0 -472 0 -47 63 c-69 92 -126 214 -158 341 -26 105
-50 289 -50 385 l0 42 730 0 730 0 0 -52z"/>
<path d="M1272 2356 c-29 -12 -49 -25 -46 -29 4 -4 2 -7 -4 -7 -21 0 -52 -63
-52 -106 0 -60 24 -98 93 -151 34 -26 67 -52 73 -58 32 -28 55 -45 63 -45 5 0
11 -3 13 -8 2 -4 26 -25 53 -47 28 -22 52 -43 55 -46 3 -3 20 -14 39 -23 27
-15 38 -16 62 -6 16 7 29 17 29 23 0 6 3 8 6 4 3 -3 13 2 23 11 36 34 77 68
125 102 27 19 63 48 80 63 17 15 46 38 64 50 37 25 72 89 72 132 0 15 -10 47
-21 71 -18 34 -32 47 -73 65 -101 45 -239 32 -303 -27 -31 -28 -36 -29 -54 -7
-8 9 -38 27 -67 40 -70 31 -157 31 -230 -1z m214 -12 c44 -16 72 -41 97 -89
12 -22 16 -25 17 -12 1 62 97 119 198 119 142 -1 237 -104 190 -207 -6 -15
-91 -87 -187 -162 -97 -75 -183 -142 -192 -150 -13 -11 -41 7 -210 140 -161
127 -196 159 -206 189 -28 85 37 166 150 187 49 9 86 5 143 -15z"/>
<path d="M2614 2460 c-90 -28 -190 -138 -229 -251 -24 -70 -25 -198 -1 -253
75 -175 249 -198 385 -51 65 70 103 162 109 260 5 96 -7 147 -51 211 -49 73
-136 107 -213 84z m98 -40 c45 -13 103 -75 117 -127 6 -21 11 -68 11 -104 0
-222 -200 -409 -343 -320 -19 11 -45 42 -60 68 -91 168 13 429 193 484 35 10
40 10 82 -1z"/>
<path d="M766 1561 c-16 -18 -16 -22 -2 -49 41 -80 184 -149 371 -179 66 -10
815 -10 880 0 177 29 323 94 375 167 25 36 25 45 -2 64 -20 14 -114 16 -814
16 -766 0 -791 -1 -808 -19z m1589 -57 c-61 -54 -145 -95 -245 -120 -68 -17
-119 -19 -535 -19 -416 0 -467 2 -535 19 -41 10 -97 29 -124 43 -52 25 -146
99 -146 114 0 5 335 9 818 9 l817 -1 -50 -45z"/>
<path d="M891 1142 c-92 -18 -224 -85 -371 -187 -69 -48 -130 -89 -136 -92 -6
-2 -17 10 -24 27 -25 61 -37 59 -200 -35 -81 -47 -151 -93 -154 -101 -8 -20 9
-52 189 -359 83 -143 166 -286 184 -318 51 -89 54 -90 188 -12 216 125 207
115 172 179 -11 21 -19 39 -17 40 2 1 40 24 85 50 l83 48 87 -20 c221 -51 263
-56 463 -56 168 0 206 3 272 22 174 48 325 130 558 301 74 55 193 142 264 193
72 51 143 105 158 120 l29 27 -20 39 c-52 102 -158 134 -293 87 -34 -11 -39
-11 -58 10 -31 33 -96 47 -161 35 -58 -11 -168 -62 -244 -112 l-50 -33 -57 22
c-92 38 -153 46 -348 47 -177 2 -187 3 -241 28 -125 59 -237 74 -358 50z
m1434 -67 c22 -13 48 -25 59 -25 15 0 16 -3 6 -15 -7 -8 -16 -15 -21 -15 -11
0 -164 -91 -236 -140 -32 -22 -82 -57 -112 -78 l-54 -37 -255 2 c-140 2 -257
5 -260 8 -3 3 96 5 220 5 l225 0 22 24 c30 32 23 63 -24 115 -38 42 -43 54
-19 44 8 -3 33 2 55 12 21 10 42 15 46 12 3 -4 1 -7 -5 -7 -6 0 -18 -12 -26
-28 -12 -23 -12 -33 -1 -57 27 -64 78 -81 119 -40 8 8 19 15 25 15 6 0 11 5
11 10 0 6 5 10 10 10 12 0 119 72 162 109 34 29 35 47 6 78 -29 31 -5 30 47
-2z m-1182 -36 c34 -11 81 -31 104 -45 40 -23 47 -24 230 -22 255 1 345 -19
407 -92 50 -60 51 -60 -215 -60 -146 0 -248 -4 -260 -10 -20 -11 -25 -45 -10
-69 8 -12 55 -14 293 -12 l283 2 42 27 c24 15 94 62 158 105 211 143 333 189
403 153 18 -9 32 -20 32 -24 0 -4 -24 -23 -52 -42 -29 -19 -134 -95 -233 -169
-317 -236 -449 -313 -620 -363 -71 -20 -101 -23 -270 -23 -197 0 -286 12 -483
65 l-73 20 -102 -60 c-56 -32 -105 -56 -108 -52 -12 12 -239 404 -239 411 1
10 193 142 282 194 46 26 110 56 143 67 84 26 207 26 288 -1z m1132 12 c18 -7
16 -10 -15 -26 -19 -10 -84 -51 -144 -91 -59 -41 -111 -74 -115 -74 -6 1 -43
72 -38 75 39 28 166 93 207 106 61 20 76 21 105 10z m345 -4 c56 -43 55 -84
-2 -113 l-31 -16 21 27 c27 35 28 71 2 87 -20 13 -27 28 -12 28 4 0 14 -6 22
-13z m-2278 -192 c33 -28 44 -30 83 -15 l26 10 -26 -34 c-14 -18 -25 -38 -25
-44 0 -21 -15 -13 -34 19 -10 16 -31 43 -47 60 -35 35 -18 39 23 4z m143 -346
l171 -296 -45 -26 c-25 -15 -69 -40 -97 -56 l-52 -30 -55 97 c-30 53 -111 195
-179 314 l-126 216 97 55 c84 49 97 53 105 39 6 -10 87 -150 181 -313z m-400
234 c-4 -10 -7 -26 -7 -37 1 -17 -1 -17 -20 4 -21 22 -21 23 -3 36 26 19 39
17 30 -3z m565 -398 c9 -11 23 -14 49 -9 l36 7 -22 -24 c-12 -13 -23 -37 -25
-53 -3 -29 -4 -28 -33 24 -16 30 -31 58 -33 62 -6 14 15 8 28 -7z m-182 -293
c-10 -12 -15 -11 -30 8 -27 33 -22 43 12 24 23 -14 27 -21 18 -32z"/>
</g>
</svg>
